<?xml version="1.0" encoding="UTF-8" standalone="no"?>
<!DOCTYPE svg PUBLIC "-//W3C//DTD SVG 1.1//EN" "http://www.w3.org/Graphics/SVG/1.1/DTD/svg11.dtd">
<svg version="1.1" xmlns="http://www.w3.org/2000/svg" xmlns:xlink="http://www.w3.org/1999/xlink" preserveAspectRatio="xMidYMid meet" viewBox="0 0 640 640" width="640" height="640"><defs><path d="M635 316.5C635 490.35 493.85 631.5 320 631.5C146.15 631.5 5 490.35 5 316.5C5 142.65 146.15 1.5 320 1.5C493.85 1.5 635 142.65 635 316.5Z" id="b7R4TjdrQ"></path><path d="M404 91.33C404 75.87 391.45 63.33 376 63.33C360.55 63.33 348 75.87 348 91.33C348 106.78 360.55 119.33 376 119.33C391.45 119.33 404 106.78 404 91.33Z" id="cQ0nYcQK"></path><path d="M460 456.5C460 533.77 397.27 596.5 320 596.5C242.73 596.5 180 533.77 180 456.5C180 379.23 242.73 316.5 320 316.5C397.27 316.5 460 379.23 460 456.5Z" id="bUv98gRDo"></path><path d="M236 203.33L404 203.33L404 91.33L236 91.33L236 203.33Z" id="bNM8v6642"></path><path d="M292 211.3L348 211.3L348 323.3L292 323.3L292 211.3Z" id="a1QIw2gu84"></path><path d="M348 211.3C348 226.76 335.45 239.3 320 239.3C304.55 239.3 292 226.76 292 211.3C292 195.85 304.55 183.3 320 183.3C335.45 183.3 348 195.85 348 211.3Z" id="a28ATXVJuI"></path><path d="M404 456.5L460 456.5L460 568.5L404 568.5L404 456.5Z" id="c2zLoWZy3e"></path><path d="M348 323.3C348 338.76 335.45 351.3 320 351.3C304.55 351.3 292 338.76 292 323.3C292 307.85 304.55 295.3 320 295.3C335.45 295.3 348 307.85 348 323.3Z" id="d6HcP7O4j"></path><path d="M460 568.5C460 583.95 447.45 596.5 432 596.5C416.55 596.5 404 583.95 404 568.5C404 553.05 416.55 540.5 432 540.5C447.45 540.5 460 553.05 460 568.5Z" id="a1c5rv2DIP"></path><path d="M180 456.5L236 456.5L236 568.5L180 568.5L180 456.5Z" id="aHsQ8BRj5"></path><path d="M225.91 437.89C235.35 437.89 243 445.55 243 454.99C243 459.01 243 453.99 243 458.01C243 467.45 235.35 475.11 225.91 475.11C215.33 475.11 200.67 475.11 190.09 475.11C180.65 475.11 173 467.45 173 458.01C173 453.99 173 459.01 173 454.99C173 445.55 180.65 437.89 190.09 437.89C200.67 437.89 215.33 437.89 225.91 437.89Z" id="a3nHsIdWPC"></path><path d="M236 568.5C236 583.95 223.45 596.5 208 596.5C192.55 596.5 180 583.95 180 568.5C180 553.05 192.55 540.5 208 540.5C223.45 540.5 236 553.05 236 568.5Z" id="ckQYK8Ria"></path><path d="M348 99.3C348 68.39 322.91 43.3 292 43.3C261.09 43.3 236 68.39 236 99.3C236 130.21 261.09 155.3 292 155.3C322.91 155.3 348 130.21 348 99.3Z" id="a15h4qpTFt"></path><path d="M449.91 437.89C459.35 437.89 467 445.55 467 454.99C467 459.01 467 453.99 467 458.01C467 467.45 459.35 475.11 449.91 475.11C439.33 475.11 424.67 475.11 414.09 475.11C404.65 475.11 397 467.45 397 458.01C397 453.99 397 460.12 397 456.38C397 446.17 405.28 437.89 415.48 437.89C425.79 437.89 439.33 437.89 449.91 437.89Z" id="a3Gs7z6AA"></path><path d="M257 203.33C257 214.92 247.59 224.33 236 224.33C224.41 224.33 215 214.92 215 203.33C215 191.74 224.41 182.33 236 182.33C247.59 182.33 257 191.74 257 203.33Z" id="cYbm2RQFf"></path><path d="M392.23 414.5C406.46 414.5 418 426.04 418 440.27C418 479.92 418 573.08 418 612.73C418 626.96 406.46 638.5 392.23 638.5C358.18 638.5 286.01 638.5 253.01 638.5C235.88 638.5 222 624.62 222 607.49C222 568.89 222 479.92 222 440.27C222 426.04 233.54 414.5 247.77 414.5C281.82 414.5 358.18 414.5 392.23 414.5Z" id="a10xV1fsZw"></path><path d="M214.82 258.63C214.82 251.4 214.82 245.53 214.82 245.53C214.82 245.53 214.82 251.4 214.82 258.63C214.82 265.86 214.82 271.73 214.82 271.73C214.82 271.73 214.82 265.86 214.82 258.63Z" id="h2IyYFqPtC"></path><path d="M425 203.33C425 214.92 415.59 224.33 404 224.33C392.41 224.33 383 214.92 383 203.33C383 191.74 392.41 182.33 404 182.33C415.59 182.33 425 191.74 425 203.33Z" id="g1MpJ8Sv9W"></path><path d="M404 167.35C404 213.71 366.36 251.35 320 251.35C273.64 251.35 236 213.71 236 167.35C236 120.99 273.64 83.35 320 83.35C366.36 83.35 404 120.99 404 167.35Z" id="c13V9XSlED"></path><path d="M236 167.35L404 167.35L404 239.3L236 239.3L236 167.35Z" id="eQJ96ccg7"></path><path d="M404 239.3C404 285.66 366.36 323.3 320 323.3C273.64 323.3 236 285.66 236 239.3C236 192.94 273.64 155.3 320 155.3C366.36 155.3 404 192.94 404 239.3Z" id="i2gi71NE2"></path><path d="M404 239.3C404 285.66 366.36 323.3 320 323.3C273.64 323.3 236 285.66 236 239.3C236 192.94 273.64 155.3 320 155.3C366.36 155.3 404 192.94 404 239.3Z" id="cjJLMZd8t"></path><path d="M362 239.3C362 262.48 343.18 281.3 320 281.3C296.82 281.3 278 262.48 278 239.3C278 216.12 296.82 197.3 320 197.3C343.18 197.3 362 216.12 362 239.3Z" id="ftllWPk20"></path><path d="M278 183.3L362 183.3L362 239.3L278 239.3L278 183.3Z" id="c35mNjjXm"></path><path d="M264 175.33L376 175.33L376 231.33L264 231.33L264 175.33Z" id="a4sZhPla7E"></path><path d="M369.57 175.33C369.57 181.12 364.86 185.83 359.07 185.83C353.27 185.83 348.57 181.12 348.57 175.33C348.57 169.53 353.27 164.83 359.07 164.83C364.86 164.83 369.57 169.53 369.57 175.33Z" id="a2SNwAtPTy"></path><path d="M291.43 175.33C291.43 181.12 286.73 185.83 280.93 185.83C275.14 185.83 270.43 181.12 270.43 175.33C270.43 169.53 275.14 164.83 280.93 164.83C286.73 164.83 291.43 169.53 291.43 175.33Z" id="g16qHjnSLZ"></path><path d="M306 169.3L334 169.3L334 211.3L306 211.3L306 169.3Z" id="a2H6CSMke"></path><path d="M334 211.3C334 219.03 327.73 225.3 320 225.3C312.27 225.3 306 219.03 306 211.3C306 203.57 312.27 197.3 320 197.3C327.73 197.3 334 203.57 334 211.3Z" id="c6EOHMHXw0"></path><path d="M335.73 152.63L389.45 152.63L389.45 156.83L335.73 156.83L335.73 152.63Z" id="eUrlbJAZ5"></path><path d="M250.53 152.62L304.25 152.62L304.25 156.82L250.53 156.82L250.53 152.62Z" id="d1XY2t5LUK"></path><path d="M304.25 156.82L335.05 156.82L335.05 161.02L304.25 161.02L304.25 156.82Z" id="c5vUz44iAA"></path><path d="M250.3 156.82L304.47 156.82C304.47 171.33 304.47 180.4 304.47 184.03C304.47 191.76 298.21 198.03 290.47 198.03C282.44 198.03 272.33 198.03 264.3 198.03C256.57 198.03 250.3 191.76 250.3 184.03C250.3 180.4 250.3 171.33 250.3 156.82Z" id="c4Wza8h1D"></path><path d="M335.5 156.83L389.68 156.83C389.68 171.34 389.68 180.41 389.68 184.03C389.68 191.77 383.41 198.03 375.68 198.03C367.64 198.03 357.54 198.03 349.5 198.03C341.77 198.03 335.5 191.77 335.5 184.03C335.5 180.41 335.5 171.34 335.5 156.83Z" id="d8MzuazFv8"></path><path d="M236.53 160.87L250.53 160.87L250.53 165.07L236.53 165.07L236.53 160.87Z" id="j1HXST7hm5"></path><path d="M389.47 160.87L403.47 160.87L403.47 165.07L389.47 165.07L389.47 160.87Z" id="aueWHAIkS"></path><path d="M341 272.35C341 283.94 299 283.94 299 272.35C299 260.76 308.41 251.35 320 251.35C331.59 251.35 341 260.76 341 272.35Z" id="aaUpKM5Eh"></path></defs><g><g><g><use xlink:href="#b7R4TjdrQ" opacity="1" fill="#ff0039" fill-opacity="1"></use></g><g><use xlink:href="#cQ0nYcQK" opacity="1" fill="#2a2222" fill-opacity="1"></use></g><g><use xlink:href="#bUv98gRDo" opacity="1" fill="#6b21ef" fill-opacity="1"></use></g><g><use xlink:href="#bNM8v6642" opacity="1" fill="#2a2222" fill-opacity="1"></use></g><g><use xlink:href="#a1QIw2gu84" opacity="1" fill="#fbd089" fill-opacity="1"></use></g><g><use xlink:href="#a28ATXVJuI" opacity="1" fill="#fbd089" fill-opacity="1"></use></g><g><use xlink:href="#c2zLoWZy3e" opacity="1" fill="#fbd089" fill-opacity="1"></use></g><g><use xlink:href="#d6HcP7O4j" opacity="1" fill="#fbd089" fill-opacity="1"></use></g><g><use xlink:href="#a1c5rv2DIP" opacity="1" fill="#fbd089" fill-opacity="1"></use></g><g><use xlink:href="#aHsQ8BRj5" opacity="1" fill="#fbd089" fill-opacity="1"></use></g><g><use xlink:href="#a3nHsIdWPC" opacity="1" fill="#6010f0" fill-opacity="1"></use></g><g><use xlink:href="#ckQYK8Ria" opacity="1" fill="#fbd089" fill-opacity="1"></use></g><g><use xlink:href="#a15h4qpTFt" opacity="1" fill="#2a2222" fill-opacity="1"></use></g><g><use xlink:href="#a3Gs7z6AA" opacity="1" fill="#6010f0" fill-opacity="1"></use></g><g><use xlink:href="#cYbm2RQFf" opacity="1" fill="#f8b56d" fill-opacity="1"></use></g><g><use xlink:href="#a10xV1fsZw" opacity="1" fill="#6b21ef" fill-opacity="1"></use></g><g><use xlink:href="#h2IyYFqPtC" opacity="1" fill="#f88e6d" fill-opacity="1"></use></g><g><use xlink:href="#g1MpJ8Sv9W" opacity="1" fill="#f8b56d" fill-opacity="1"></use></g><g><use xlink:href="#c13V9XSlED" opacity="1" fill="#fbd089" fill-opacity="1"></use></g><g><use xlink:href="#eQJ96ccg7" opacity="1" fill="#fbd089" fill-opacity="1"></use></g><g><use xlink:href="#i2gi71NE2" opacity="1" fill="#fbd089" fill-opacity="1"></use></g><g><use xlink:href="#cjJLMZd8t" opacity="1" fill="#fbd089" fill-opacity="1"></use></g><g><use xlink:href="#ftllWPk20" opacity="1" fill="#9c214a" fill-opacity="1"></use></g><g><use xlink:href="#c35mNjjXm" opacity="1" fill="#ffffff" fill-opacity="1"></use></g><g><use xlink:href="#a4sZhPla7E" opacity="1" fill="#fbd089" fill-opacity="1"></use></g><g><use xlink:href="#a2SNwAtPTy" opacity="1" fill="#232120" fill-opacity="1"></use></g><g><use xlink:href="#g16qHjnSLZ" opacity="1" fill="#232120" fill-opacity="1"></use></g><g><use xlink:href="#a2H6CSMke" opacity="1" fill="#f8b56d" fill-opacity="1"></use></g><g><use xlink:href="#c6EOHMHXw0" opacity="1" fill="#f8b56d" fill-opacity="1"></use></g><g><use xlink:href="#eUrlbJAZ5" opacity="1" fill="#000000" fill-opacity="1"></use></g><g><use xlink:href="#d1XY2t5LUK" opacity="1" fill="#000000" fill-opacity="1"></use></g><g><use xlink:href="#c5vUz44iAA" opacity="1" fill="#000000" fill-opacity="1"></use></g><g><use xlink:href="#c4Wza8h1D" opacity="1" fill="#ededed" fill-opacity="0.25"></use></g><g><use xlink:href="#d8MzuazFv8" opacity="1" fill="#ededed" fill-opacity="0.25"></use></g><g><use xlink:href="#j1HXST7hm5" opacity="1" fill="#000000" fill-opacity="1"></use></g><g><use xlink:href="#aueWHAIkS" opacity="1" fill="#000000" fill-opacity="1"></use></g><g><use xlink:href="#aaUpKM5Eh" opacity="1" fill="#fc4f82" fill-opacity="1"></use></g></g></g></svg>