<?xml version="1.0" encoding="UTF-8" standalone="no"?>
<!DOCTYPE svg PUBLIC "-//W3C//DTD SVG 1.1//EN" "http://www.w3.org/Graphics/SVG/1.1/DTD/svg11.dtd">
<svg version="1.1" xmlns="http://www.w3.org/2000/svg" xmlns:xlink="http://www.w3.org/1999/xlink" preserveAspectRatio="xMidYMid meet" viewBox="0 0 640 640" width="640" height="640"><defs><path d="M445 315.24L570 542.95C570 542.95 570 542.95 570 542.95C500.45 577.73 417.51 572.08 353.32 528.2C348.88 525.16 337.77 517.56 319.99 505.41C296.82 493.91 282.34 486.72 276.55 483.85C228.09 459.8 174.25 448.64 120.22 451.45C120.22 451.45 120.22 451.45 120.22 451.45L194.99 315.24C246.46 221.47 278.63 162.87 291.5 139.43C303.85 116.95 336.14 116.95 348.49 139.43C361.35 162.87 393.53 221.47 445 315.24Z" id="a5QPcvMNrV"></path><linearGradient id="gradientb1C9Bpa9x" gradientUnits="userSpaceOnUse" x1="345.11" y1="117.76" x2="345.11" y2="564.86"><stop style="stop-color: #e4e4e4;stop-opacity: 1" offset="0%"></stop><stop style="stop-color: #6b6b6b;stop-opacity: 1" offset="100%"></stop></linearGradient><path d="M20 493.16C41.58 480.38 55.07 472.39 60.46 469.2C133.21 426.13 224.46 429.74 293.57 478.43C332.12 505.58 333.71 506.7 372.13 533.77C438.89 580.8 529.32 575.27 589.85 520.46C593.87 516.82 603.92 507.72 620 493.16L620 513.16C603.92 527.72 593.87 536.82 589.85 540.46C529.32 595.27 438.89 600.8 372.13 553.77C333.71 526.7 332.12 525.58 293.57 498.43C224.46 449.74 133.21 446.13 60.46 489.2C55.07 492.39 41.58 500.38 20 513.16L20 493.16Z" id="e29vOyAnfb"></path><linearGradient id="gradientbkh4MUEB" gradientUnits="userSpaceOnUse" x1="8.42" y1="439.23" x2="630.53" y2="439.23"><stop style="stop-color: #00ffb4;stop-opacity: 1" offset="0%"></stop><stop style="stop-color: #00fffc;stop-opacity: 1" offset="100%"></stop></linearGradient></defs><g><g><g><use xlink:href="#a5QPcvMNrV" opacity="1" fill="url(#gradientb1C9Bpa9x)"></use></g><g><use xlink:href="#e29vOyAnfb" opacity="1" fill="url(#gradientbkh4MUEB)"></use></g></g></g></svg>